{
  "accessors": [
    {
      "bufferView": 2,
      "componentType": 5126,
      "count": 1375,
      "max": [
        16.45895004272461,
        9.012530326843262,
        3.651578903198242
      ],
      "min": [
        3.803731918334961,
        -2.965826988220215,
        -1.0836780071258545
      ],
      "type": "VEC3"
    },
    {
      "bufferView": 2,
      "byteOffset": 16500,
      "componentType": 5126,
      "count": 1375,
      "type": "VEC3"
    },
    {
      "bufferView": 3,
      "componentType": 5126,
      "count": 1375,
      "type": "VEC4"
    },
    {
      "bufferView": 1,
      "componentType": 5126,
      "count": 1375,
      "type": "VEC2"
    },
    {
      "bufferView": 0,
      "componentType": 5125,
      "count": 4326,
      "type": "SCALAR"
    },
    {
      "bufferView": 2,
      "byteOffset": 33000,
      "componentType": 5126,
      "count": 1568,
      "max": [
        20.301700592041016,
        8.775004386901855,
        3.872370958328247
      ],
      "min": [
        4.0774922370910645,
        6.486746788024902,
        -0.4829728901386261
      ],
      "type": "VEC3"
    },
    {
      "bufferView": 2,
      "byteOffset": 51816,
      "componentType": 5126,
      "count": 1568,
      "type": "VEC3"
    },
    {
      "bufferView": 3,
      "byteOffset": 22000,
      "componentType": 5126,
      "count": 1568,
      "type": "VEC4"
    },
    {
      "bufferView": 1,
      "byteOffset": 11000,
      "componentType": 5126,
      "count": 1568,
      "type": "VEC2"
    },
    {
      "bufferView": 0,
      "byteOffset": 17304,
      "componentType": 5125,
      "count": 5076,
      "type": "SCALAR"
    },
    {
      "bufferView": 2,
      "byteOffset": 70632,
      "componentType": 5126,
      "count": 1568,
      "max": [
        20.43807029724121,
        -0.23583050072193146,
        4.295464992523193
      ],
      "min": [
        4.213860988616943,
        -2.524087905883789,
        -0.05988096818327904
      ],
      "type": "VEC3"
    },
    {
      "bufferView": 2,
      "byteOffset": 89448,
      "componentType": 5126,
      "count": 1568,
      "type": "VEC3"
    },
    {
      "bufferView": 3,
      "byteOffset": 47088,
      "componentType": 5126,
      "count": 1568,
      "type": "VEC4"
    },
    {
      "bufferView": 1,
      "byteOffset": 23544,
      "componentType": 5126,
      "count": 1568,
      "type": "VEC2"
    },
    {
      "bufferView": 0,
      "byteOffset": 37608,
      "componentType": 5125,
      "count": 5076,
      "type": "SCALAR"
    }
  ],
  "asset": {
    "generator": "fab-model-conversion",
    "version": "2.0"
  },
  "bufferViews": [
    {
      "buffer": 0,
      "byteLength": 57912,
      "target": 34963
    },
    {
      "buffer": 0,
      "byteLength": 36088,
      "byteOffset": 57912,
      "byteStride": 8,
      "target": 34962
    },
    {
      "buffer": 0,
      "byteLength": 108264,
      "byteOffset": 94000,
      "byteStride": 12,
      "target": 34962
    },
    {
      "buffer": 0,
      "byteLength": 72176,
      "byteOffset": 202264,
      "byteStride": 16,
      "target": 34962
    }
  ],
  "buffers": [
    {
      "byteLength": 274440,
      "uri": "scene.bin"
    }
  ],
  "extensionsUsed": [
    "KHR_materials_specular"
  ],
  "images": [
    {
      "uri": "textures/Body_baseColor.png"
    },
    {
      "uri": "textures/Body_metallicRoughness.png"
    },
    {
      "uri": "textures/Body_emissive.png"
    },
    {
      "uri": "textures/Body_normal.png"
    },
    {
      "uri": "textures/Weapons_baseColor.png"
    },
    {
      "uri": "textures/Weapons_metallicRoughness.png"
    },
    {
      "uri": "textures/Weapons_normal.png"
    }
  ],
  "materials": [
    {
      "doubleSided": true,
      "emissiveFactor": [
        1.0,
        1.0,
        1.0
      ],
      "emissiveTexture": {
        "index": 2
      },
      "extensions": {
        "KHR_materials_specular": {
          "specularColorFactor": [
            1.0,
            1.0,
            1.0
          ],
          "specularFactor": 0.73
        }
      },
      "name": "Body",
      "normalTexture": {
        "index": 3
      },
      "pbrMetallicRoughness": {
        "baseColorTexture": {
          "index": 0
        },
        "metallicFactor": 0.0,
        "metallicRoughnessTexture": {
          "index": 1
        },
        "roughnessFactor": 0.9400000000000001
      }
    },
    {
      "doubleSided": true,
      "extensions": {
        "KHR_materials_specular": {
          "specularColorFactor": [
            1.0,
            1.0,
            1.0
          ],
          "specularFactor": 0.19
        }
      },
      "name": "Weapons",
      "normalTexture": {
        "index": 6
      },
      "pbrMetallicRoughness": {
        "baseColorTexture": {
          "index": 4
        },
        "metallicRoughnessTexture": {
          "index": 5
        },
        "roughnessFactor": 0.76
      }
    }
  ],
  "meshes": [
    {
      "name": "Object_0",
      "primitives": [
        {
          "attributes": {
            "NORMAL": 1,
            "POSITION": 0,
            "TANGENT": 2,
            "TEXCOORD_0": 3
          },
          "indices": 4,
          "material": 0,
          "mode": 4
        }
      ]
    },
    {
      "name": "Object_1",
      "primitives": [
        {
          "attributes": {
            "NORMAL": 6,
            "POSITION": 5,
            "TANGENT": 7,
            "TEXCOORD_0": 8
          },
          "indices": 9,
          "material": 1,
          "mode": 4
        }
      ]
    },
    {
      "name": "Object_2",
      "primitives": [
        {
          "attributes": {
            "NORMAL": 11,
            "POSITION": 10,
            "TANGENT": 12,
            "TEXCOORD_0": 13
          },
          "indices": 14,
          "material": 1,
          "mode": 4
        }
      ]
    }
  ],
  "nodes": [
    {
      "children": [
        1
      ],
      "matrix": [
        1.0,
        0.0,
        0.0,
        0.0,
        0.0,
        2.220446049250313e-16,
        -1.0,
        0.0,
        0.0,
        1.0,
        2.220446049250313e-16,
        0.0,
        0.0,
        0.0,
        0.0,
        1.0
      ],
      "name": "Sketchfab_model"
    },
    {
      "children": [
        2,
        3,
        4
      ],
      "name": "SP_Showcase.unity_6.obj.cleaner.gles"
    },
    {
      "mesh": 0,
      "name": "Object_2"
    },
    {
      "mesh": 1,
      "name": "Object_3"
    },
    {
      "mesh": 2,
      "name": "Object_4"
    }
  ],
  "samplers": [
    {
      "magFilter": 9729,
      "minFilter": 9987,
      "wrapS": 10497,
      "wrapT": 10497
    }
  ],
  "scene": 0,
  "scenes": [
    {
      "name": "Sketchfab_Scene",
      "nodes": [
        0
      ]
    }
  ],
  "textures": [
    {
      "sampler": 0,
      "source": 0
    },
    {
      "sampler": 0,
      "source": 1
    },
    {
      "sampler": 0,
      "source": 2
    },
    {
      "sampler": 0,
      "source": 3
    },
    {
      "sampler": 0,
      "source": 4
    },
    {
      "sampler": 0,
      "source": 5
    },
    {
      "sampler": 0,
      "source": 6
    }
  ]
}
